<svg id="Layer_1" data-name="Layer 1" xmlns="http://www.w3.org/2000/svg" viewBox="0 0 361 325.14"><defs><style>.cls-1{fill:none;stroke:#231f20;stroke-miterlimit:10;}.cls-2{fill:#231f20;}.cls-3{fill:#010101;}</style></defs><title>camera_front</title><line class="cls-1" x1="0.5" y1="324.64" x2="360.5" y2="324.64"/><path class="cls-1" d="M18,0H378M18,324V0" transform="translate(-17.5 0.5)"/><line class="cls-1" x1="360.5" y1="324.5" x2="360.5" y2="0.5"/><path class="cls-2" d="M124.4,304.05a7.2,7.2,0,0,1-4.74,1.38h-3.94v6.8H111.8V293.32h8.12a6.56,6.56,0,0,1,4.47,1.46,5.7,5.7,0,0,1,1.67,4.53Q126.06,302.66,124.4,304.05Zm-3-6.82a3.18,3.18,0,0,0-2.11-.63h-3.56v5.57h3.56a3,3,0,0,0,2.11-.68,2.76,2.76,0,0,0,.75-2.15A2.61,2.61,0,0,0,121.39,297.23Z" transform="translate(-17.5 0.5)"/><path class="cls-2" d="M139,298.32a4.16,4.16,0,0,1,1.73,1.38,3.74,3.74,0,0,1,.7,1.61,20.67,20.67,0,0,1,.13,2.7v8.22h-3.74v-8.51a3.72,3.72,0,0,0-.38-1.83,1.91,1.91,0,0,0-1.88-1,2.59,2.59,0,0,0-2.19,1,4.47,4.47,0,0,0-.74,2.76v7.58H129V293.39h3.66v6.67a4.45,4.45,0,0,1,1.83-1.7,5.22,5.22,0,0,1,2.19-.49A6,6,0,0,1,139,298.32Z" transform="translate(-17.5 0.5)"/><path class="cls-2" d="M152.75,297.92l.32,0v3.74l-.62-.05H152a3,3,0,0,0-3,1.44,5.64,5.64,0,0,0-.42,2.49v6.68H145v-14h3.48v2.43a7.82,7.82,0,0,1,1.48-1.91,4,4,0,0,1,2.67-.86Z" transform="translate(-17.5 0.5)"/><path class="cls-2" d="M164.32,298.53a5.8,5.8,0,0,1,2.42,2.07,6.88,6.88,0,0,1,1.11,2.89,17.41,17.41,0,0,1,.12,2.77H157.79a3.32,3.32,0,0,0,1.46,2.95,3.63,3.63,0,0,0,2,.53,3.07,3.07,0,0,0,2-.64,3,3,0,0,0,.76-1h3.73a4.52,4.52,0,0,1-1.36,2.52,6.78,6.78,0,0,1-5.26,2,7.59,7.59,0,0,1-4.92-1.72c-1.42-1.14-2.14-3-2.14-5.59a7.61,7.61,0,0,1,1.93-5.58,6.74,6.74,0,0,1,5-1.94A7.92,7.92,0,0,1,164.32,298.53Zm-5.47,3.16a3.74,3.74,0,0,0-1,2.16h6.29a3,3,0,0,0-1-2.21,3.2,3.2,0,0,0-2.17-.75A2.91,2.91,0,0,0,158.85,301.69Z" transform="translate(-17.5 0.5)"/><path class="cls-2" d="M181.09,299.05a4.61,4.61,0,0,1,1.38,3.76v9.42h-3.75v-8.51a4,4,0,0,0-.29-1.69,2.06,2.06,0,0,0-2-1.08,2.52,2.52,0,0,0-2.53,1.58,5.44,5.44,0,0,0-.36,2.13v7.57h-3.66v-14h3.54v2a6.41,6.41,0,0,1,1.33-1.55,4.64,4.64,0,0,1,2.85-.85A5.33,5.33,0,0,1,181.09,299.05Z" transform="translate(-17.5 0.5)"/><path class="cls-2" d="M191.4,303.72a5.46,5.46,0,0,0,1.46-.32,1.1,1.1,0,0,0,.79-1,1.23,1.23,0,0,0-.6-1.18,3.84,3.84,0,0,0-1.78-.33,2.34,2.34,0,0,0-1.86.64,2.72,2.72,0,0,0-.52,1.29h-3.52a5.3,5.3,0,0,1,1-3q1.46-1.85,5-1.85a9,9,0,0,1,4.1.91,3.49,3.49,0,0,1,1.79,3.44v6.42c0,.44,0,1,0,1.61a2,2,0,0,0,.22,1,1.31,1.31,0,0,0,.54.42v.54h-4a3.92,3.92,0,0,1-.23-.8,8.45,8.45,0,0,1-.1-.84A8,8,0,0,1,192,312a5.34,5.34,0,0,1-2.68.68,4.65,4.65,0,0,1-3.16-1.09,3.85,3.85,0,0,1-1.24-3.07,4,4,0,0,1,2-3.73,8.92,8.92,0,0,1,3.23-.9Zm2.24,1.71a3.6,3.6,0,0,1-.71.35,5.27,5.27,0,0,1-1,.25l-.83.16a5.2,5.2,0,0,0-1.68.5,1.66,1.66,0,0,0-.87,1.55,1.62,1.62,0,0,0,.53,1.35,2,2,0,0,0,1.28.42,3.83,3.83,0,0,0,2.21-.69,3,3,0,0,0,1-2.53Z" transform="translate(-17.5 0.5)"/><path class="cls-2" d="M208.24,297.92l.32,0v3.74l-.62-.05h-.43a3,3,0,0,0-3,1.44,5.64,5.64,0,0,0-.42,2.49v6.68h-3.68v-14h3.49v2.43a7.6,7.6,0,0,1,1.47-1.91,4.06,4.06,0,0,1,2.67-.86Z" transform="translate(-17.5 0.5)"/><path class="cls-2" d="M222.36,310.52a7.72,7.72,0,0,1-10.75,0,8.67,8.67,0,0,1,0-10.5,7.62,7.62,0,0,1,10.75,0,8.67,8.67,0,0,1,0,10.5Zm-2.92-2a6.6,6.6,0,0,0,0-6.48,3.26,3.26,0,0,0-4.94,0,6.53,6.53,0,0,0,0,6.48,3.25,3.25,0,0,0,4.94,0Z" transform="translate(-17.5 0.5)"/><path class="cls-2" d="M230.51,296.58H226.8v-3.37h3.71Zm-3.71,1.67h3.71v14H226.8Z" transform="translate(-17.5 0.5)"/><path class="cls-2" d="M241.46,298.47a4.4,4.4,0,0,1,1.6,1.55v-6.67h3.71v18.88h-3.55v-1.94a5.17,5.17,0,0,1-1.79,1.81,4.92,4.92,0,0,1-2.48.57,5.22,5.22,0,0,1-4.13-2,7.62,7.62,0,0,1-1.67-5.08A8.72,8.72,0,0,1,234.8,300a5.35,5.35,0,0,1,4.4-2.06A4.54,4.54,0,0,1,241.46,298.47Zm.9,10a5.08,5.08,0,0,0,.81-3,4.61,4.61,0,0,0-1.3-3.67,2.82,2.82,0,0,0-1.85-.66,2.55,2.55,0,0,0-2.35,1.21,6.56,6.56,0,0,0,0,6.11,2.59,2.59,0,0,0,2.32,1.16A2.71,2.71,0,0,0,242.36,308.43Z" transform="translate(-17.5 0.5)"/><path class="cls-3" d="M284.37,289.46h-8.74v-.52c0-.45-.39-.16-.39-.16l-.54.47c-.42.36-.7.1-.7.1a.63.63,0,0,0-.28-.16l-.52-7.94a1,1,0,0,0-.1-.46,2.92,2.92,0,0,0,1.24-2.37,3.11,3.11,0,0,0-6.21,0,2.93,2.93,0,0,0,1.18,2.33.88.88,0,0,0-.13.5l-.61,9.4s-.09,3.77-3.72,7.73c0,0-4.17,4.29-4.17,8.46,0,3.89,1.71,7.92,7.6,9h0a.23.23,0,0,0,.23-.23.22.22,0,0,0-.15-.22,8.27,8.27,0,0,1-6.53-8.08c0-4.3,4.46-8.54,4.46-8.54a12.85,12.85,0,0,0,4-8l0-.64H272l0,.64a12.9,12.9,0,0,0,4,8s4.46,4.24,4.46,8.54a8.27,8.27,0,0,1-6.53,8.08.22.22,0,0,0-.15.22.23.23,0,0,0,.23.23h0c5.89-1.1,7.6-5.13,7.6-9,0-4.17-4.17-8.46-4.17-8.46-3.64-4-3.72-7.73-3.72-7.73v-.22a1,1,0,0,0,.2-.13s.28-.27.7.09l.54.48s.39.28.39-.17v-.52h8.74a.36.36,0,0,0,0-.72Zm-13.14-12.92a2,2,0,0,1,2,1.88,1.89,1.89,0,0,1-1.26,1.75,1,1,0,0,0-.77-.35,1,1,0,0,0-.76.34,1.89,1.89,0,0,1-1.24-1.74A2,2,0,0,1,271.23,276.54Zm-.83,12.92.45-7.65a1.11,1.11,0,0,0,.37.07,1,1,0,0,0,.31-.05l.45,7.63Z" transform="translate(-17.5 0.5)"/><path class="cls-2" d="M274.33,318.36h-.23a2.75,2.75,0,0,1-2.77-2.73,2.71,2.71,0,0,1,2.08-2.65,5.66,5.66,0,0,0,4.61-5.54v-.11c0-2.63-2.73-5.82-3.68-6.73a17.33,17.33,0,0,1-3.15-4.25,16.94,16.94,0,0,1-3.11,4.21c-1.06,1-3.72,4.15-3.72,6.77v.11A5.74,5.74,0,0,0,269,313a2.67,2.67,0,0,1,2,2.63,2.73,2.73,0,0,1-2.73,2.73l-.49,0c-6.13-1.15-9.64-5.33-9.64-11.48,0-5,4.37-9.69,4.87-10.2a10.6,10.6,0,0,0,3-6.07l.58-9a5.37,5.37,0,0,1-1-3.16,5.61,5.61,0,0,1,11.21,0,5.42,5.42,0,0,1-1.11,3.26l.3,4.57a2.36,2.36,0,0,1,.63.22,2.57,2.57,0,0,1,.68.49h7a2.86,2.86,0,0,1,0,5.72h-7a2.3,2.3,0,0,1-.38.32,12.79,12.79,0,0,0,2.42,3.69c.45.46,4.82,5.11,4.82,10.15,0,6.15-3.51,10.33-9.64,11.48Zm-6.66-.55.14,0Zm7.09,0-.13,0ZM271.18,279h.08l.24-.17-.27-.7-.27.7Z" transform="translate(-17.5 0.5)"/><circle class="cls-1" cx="180.5" cy="151.07" r="27.14"/><circle class="cls-1" cx="180.76" cy="151.07" r="15.21"/></svg>